<svg height="512" viewBox="0 0 512 512" width="512" xmlns="http://www.w3.org/2000/svg"><g id="filled_outline" data-name="filled outline"><path d="m160 448a7.969 7.969 0 0 1 -3.148-.652l-56-24a8 8 0 0 1 -4.852-7.348v-72a8 8 0 0 1 16 0v66.727l51.152 21.921a8 8 0 0 1 -3.152 15.352z" fill="#cdcdcd"/><path d="m144 432h48a16 16 0 0 1 16 16 16 16 0 0 1 -16 16h-48a0 0 0 0 1 0 0v-32a0 0 0 0 1 0 0z" fill="#9c9c9c" transform="matrix(.921 .389 -.389 .921 188.286 -33.175)"/><path d="m80 200v40h48v-40a128 128 0 0 1 128-128 128 128 0 0 1 128 128v40h48v-40a176 176 0 0 0 -176-176 176 176 0 0 0 -176 176z" fill="#cdcdcd"/><rect fill="#fbb540" height="160" rx="16" width="64" x="72" y="192"/><path d="m48 215.3h24a0 0 0 0 1 0 0v112.7a0 0 0 0 1 0 0h-24a24 24 0 0 1 -24-24v-64.7a24 24 0 0 1 24-24z" fill="#ea9d2d"/><rect fill="#fbb540" height="160" rx="16" width="64" x="376" y="200"/><path d="m464 223.3h24a0 0 0 0 1 0 0v112.7a0 0 0 0 1 0 0h-24a24 24 0 0 1 -24-24v-64.7a24 24 0 0 1 24-24z" fill="#ea9d2d" transform="matrix(-1 0 0 -1 928 559.304)"/><g fill="#b8eaee"><path d="m356.853 328a79.706 79.706 0 0 0 -30.438 6.03l-54.415-10.883 10.883 54.415a79.992 79.992 0 1 0 73.97-49.562z"/><circle cx="256" cy="268" r="12"/><circle cx="300" cy="268" r="12"/><circle cx="212" cy="268" r="12"/></g><circle cx="356.853" cy="408" fill="#8aced8" r="44"/><path d="m356.852 356a52 52 0 1 0 52 52 52.06 52.06 0 0 0 -52-52zm35.033 44h-11.672a115.1 115.1 0 0 0 -3.725-22.1 36.028 36.028 0 0 1 15.397 22.1zm-35.033 44c-.329 0-.634-.088-.96-.1a99.711 99.711 0 0 1 -6.392-27.9h14.709a99.8 99.8 0 0 1 -6.393 27.9c-.329.012-.634.1-.964.1zm-7.352-44a99.711 99.711 0 0 1 6.393-27.9c.326-.009.631-.1.96-.1s.635.088.963.1a99.8 99.8 0 0 1 6.393 27.9zm-12.285-22.1a115.231 115.231 0 0 0 -3.723 22.1h-11.674a36.028 36.028 0 0 1 15.396-22.1zm-15.4 38.1h11.673a115.218 115.218 0 0 0 3.723 22.1 36.028 36.028 0 0 1 -15.393-22.1zm54.67 22.1a115.167 115.167 0 0 0 3.725-22.1h11.672a36.032 36.032 0 0 1 -15.394 22.1z" fill="#69b0bb"/><circle cx="256" cy="268" r="12"/><path d="m356.852 356a52 52 0 1 0 52 52 52.06 52.06 0 0 0 -52-52zm-35.034 60h11.673a115.218 115.218 0 0 0 3.723 22.1 36.028 36.028 0 0 1 -15.396-22.1zm11.673-16h-11.673a36.028 36.028 0 0 1 15.4-22.1 115.231 115.231 0 0 0 -3.727 22.1zm24.324 43.9c-.328.009-.633.1-.963.1s-.634-.088-.96-.1a99.711 99.711 0 0 1 -6.392-27.9h14.709a99.8 99.8 0 0 1 -6.394 27.9zm-8.315-43.9a99.711 99.711 0 0 1 6.393-27.9c.326-.009.631-.1.96-.1s.635.088.963.1a99.8 99.8 0 0 1 6.393 27.9zm26.989 38.1a115.167 115.167 0 0 0 3.725-22.1h11.672a36.032 36.032 0 0 1 -15.398 22.1zm3.725-38.1a115.1 115.1 0 0 0 -3.725-22.1 36.028 36.028 0 0 1 15.4 22.1z"/><path d="m464 215.305h-16.09a23.57 23.57 0 0 0 -7.954-17.034c-.936-100.66-83.079-182.271-183.956-182.271a183.521 183.521 0 0 0 -183.523 173.849 23.827 23.827 0 0 0 -8.407 17.456h-16.07a32.036 32.036 0 0 0 -32 32v64.695a32.036 32.036 0 0 0 32 32h16a24.027 24.027 0 0 0 24 24h8v56a8 8 0 0 0 4.852 7.355l35.683 15.282-3.6 8.531a7.99 7.99 0 0 0 4.254 10.48l44.211 18.684a23.791 23.791 0 0 0 9.312 1.895 24 24 0 0 0 9.371-46.1l-44.211-18.688a7.992 7.992 0 0 0 -10.48 4.254l-2.623 6.206-30.769-13.176v-50.723h8a24.027 24.027 0 0 0 24-24v-128a23.883 23.883 0 0 0 -7.485-17.333 119.88 119.88 0 0 1 239.405 7.7 23.631 23.631 0 0 0 -7.92 17.633v104.786a85.5 85.5 0 0 0 -42.332 4.937l-52.1-10.418a8 8 0 0 0 -9.414 9.414l10.418 52.1a88.007 88.007 0 1 0 159.432-11.071 23.982 23.982 0 0 0 13.996-21.748h16a32.036 32.036 0 0 0 32-32v-64.695a32.036 32.036 0 0 0 -32-32zm-400 104.695h-16a16.016 16.016 0 0 1 -16-16v-64.695a16.015 16.015 0 0 1 16-16h16zm93.008 111.289 36.844 15.574a8 8 0 1 1 -6.231 14.735l-36.84-15.571zm-29.008-95.289a8.011 8.011 0 0 1 -8 8h-32a8.011 8.011 0 0 1 -8-8v-128a8.011 8.011 0 0 1 8-8h32a8.011 8.011 0 0 1 8 8zm224.207-232.227a135.969 135.969 0 0 0 -231.134 80.335c-.363-.016-.7-.108-1.073-.108h-31.033a167.469 167.469 0 0 1 167.033-152c89.937 0 163.377 71.089 167.6 160h-31.6c-.131 0-.255.049-.387.051a135.264 135.264 0 0 0 -39.406-88.278zm4.645 376.227a71.969 71.969 0 0 1 -66.571-99.391 7.981 7.981 0 0 0 .446-4.617l-8.527-42.644 42.645 8.527a7.989 7.989 0 0 0 4.617-.445 71.993 71.993 0 1 1 27.39 138.57zm75.148-256.695v120.695a7.951 7.951 0 0 1 -7.425 7.884 88.267 88.267 0 0 0 -40.575-27.551v-108.333a8.036 8.036 0 0 1 8-8h32a8.038 8.038 0 0 1 8 8zm48 88.695a16.016 16.016 0 0 1 -16 16h-16v-96.695h16a16.015 16.015 0 0 1 16 16z"/><circle cx="300" cy="268" r="12"/><circle cx="212" cy="268" r="12"/></g></svg>