<svg height="512" viewBox="0 0 512 512" width="512" xmlns="http://www.w3.org/2000/svg"><g id="filled_outline" data-name="filled outline"><path d="m255.966 305.23 48.277-15.686-9.889-30.434-48.27 15.684a48.093 48.093 0 0 0 -22.084-16.059v-50.742h-32v50.742a48.1 48.1 0 0 0 -22.088 16.059l-48.27-15.684-9.888 30.434 48.277 15.686a47.742 47.742 0 0 0 8.427 25.966l-29.83 41.058 25.888 18.809 29.824-41.053a48.016 48.016 0 0 0 27.313 0l29.827 41.053 25.888-18.809-29.829-41.054a47.75 47.75 0 0 0 8.427-25.97z" fill="#f5b02e"/><path d="m208 119.992a184 184 0 0 0 -184 184c0 101.62 82.38 184 184 184a184 184 0 0 0 184-184c0-101.62-82.383-184-184-184zm0 272a88 88 0 1 1 88-88 88 88 0 0 1 -88 88.001z" fill="#878787"/><circle cx="207.997" cy="303.993" fill="#d38e14" r="20"/><path d="m208 179.993a124 124 0 1 0 124 124 124 124 0 0 0 -124-124zm0 212a88 88 0 1 1 88-88 88 88 0 0 1 -88 88z" fill="#b9b9b9"/><path d="m424 207.993a16 16 0 0 1 -16-16v-48h32v48a16 16 0 0 1 -16 16z" fill="#4298d1"/><path d="m408 158.147a70.3 70.3 0 0 0 32 0v-14.155h-32z" fill="#3474a6"/><circle cx="423.997" cy="87.992" fill="#69b9e7" r="64"/><circle cx="423.997" cy="87.992" fill="#bef5fa" r="48"/><path d="m444.005 122.637-8.016-13.852a24 24 0 1 0 -35.989-20.793h-16a40 40 0 1 1 60.008 34.645z" fill="#a7d6db"/><path d="m235.992 304a28 28 0 1 0 -28 28 28.031 28.031 0 0 0 28-28zm-40 0a12 12 0 1 1 12 12 12.013 12.013 0 0 1 -12-12z"/><path d="m207.992 208a96 96 0 1 0 96 96 96.109 96.109 0 0 0 -96-96zm65.1 49.583-24.441 7.964a56.267 56.267 0 0 0 -16.654-12.133v-25.731a80.308 80.308 0 0 1 41.09 29.9zm-9.927 36.861a55.548 55.548 0 0 0 -4.947-15.186l22.976-7.487a79.38 79.38 0 0 1 4.962 15.229zm-133.336-7.444a79.241 79.241 0 0 1 4.967-15.226l22.976 7.487a55.514 55.514 0 0 0 -4.947 15.186zm39.136 57.109a56.248 56.248 0 0 0 12.9 9.405l-14.205 19.532a80.417 80.417 0 0 1 -12.928-9.418zm-.973-40.109a40 40 0 1 1 40 40 40.046 40.046 0 0 1 -40-40zm79.028 40.106 14.232 19.522a80.453 80.453 0 0 1 -12.927 9.418l-14.208-19.535a56.275 56.275 0 0 0 12.903-9.405zm-31.028-119.706v24.18a55.368 55.368 0 0 0 -16 0v-24.18q3.948-.394 8-.4t8 .4zm-32 3.282v25.731a56.292 56.292 0 0 0 -16.654 12.133l-24.438-7.963a80.308 80.308 0 0 1 41.092-29.9zm-55.98 75.544 24.452 7.918a55.577 55.577 0 0 0 6.384 19.677l-15.128 20.752a79.572 79.572 0 0 1 -15.728-47.573c0-.259.017-.514.02-.773zm54.507 76.591 15.122-20.793a55.438 55.438 0 0 0 20.7 0l15.122 20.793a79.673 79.673 0 0 1 -50.947 0zm89.746-28.245-15.129-20.751a55.578 55.578 0 0 0 6.385-19.677l24.452-7.918c0 .259.019.514.019.773a79.571 79.571 0 0 1 -15.727 47.574z"/><path d="m423.992 64a24 24 0 0 1 11.994 44.794l8.014 13.85a40 40 0 1 0 -60.008-34.644h16a24.027 24.027 0 0 1 24-24z"/><path d="m423.992 100a12 12 0 1 0 -12-12c0 .22.021.436.033.653l-17.69 17.69a8 8 0 0 0 11.314 11.314l17.69-17.69c.218.012.433.033.653.033z"/><path d="m455.992 248a24.028 24.028 0 0 1 -24-24v-9.376a24.039 24.039 0 0 0 16-22.624v-36.128a72 72 0 1 0 -48 0v36.128a24.039 24.039 0 0 0 16 22.624v9.376a40.046 40.046 0 0 0 40 40 24.027 24.027 0 0 1 24 24v16a24.027 24.027 0 0 1 -24 24h-57.492a193.031 193.031 0 0 0 1.5-24c0-105.869-86.131-192-192-192s-192 86.131-192 192 86.131 192 192 192c92.155 0 169.343-65.266 187.8-152h60.2a40.045 40.045 0 0 0 40-40v-16a40.045 40.045 0 0 0 -40.008-40zm-88-160a56 56 0 1 1 56 56 56.063 56.063 0 0 1 -56-56zm56 72a72.383 72.383 0 0 0 8-.455v32.455a8 8 0 0 1 -16 0v-32.455a72.4 72.4 0 0 0 8 .455zm-52.147 208.26-5.583-13.481a8 8 0 0 0 -14.783 6.122l11.188 27.016a176.99 176.99 0 0 1 -27.877 38.012v-14.449a8 8 0 0 0 -16 0v28.52c0 .207.016.41.031.613a176.268 176.268 0 0 1 -40.39 24.659l5.569-13.451a8 8 0 0 0 -14.783-6.122l-11.2 27.047a175.3 175.3 0 0 1 -46.67 7.211l10.3-10.3a8 8 0 1 0 -11.314-11.314l-20.7 20.7a174.656 174.656 0 0 1 -45.9-11.191l13.477-5.583a8 8 0 0 0 -6.123-14.782l-27.008 11.188a176.968 176.968 0 0 1 -38.024-27.885h14.455a8 8 0 1 0 0-16h-29.05c-.036 0-.072 0-.108 0a176.3 176.3 0 0 1 -24.633-40.358l13.449 5.574a8 8 0 0 0 6.126-14.782l-27.05-11.21a175.268 175.268 0 0 1 -7.209-46.66l10.3 10.3a8 8 0 0 0 11.314-11.314l-20.7-20.7a174.582 174.582 0 0 1 11.191-45.9l5.581 13.476a8 8 0 0 0 14.779-6.116l-11.185-27.012a176.95 176.95 0 0 1 27.885-38.023v14.455a8 8 0 0 0 16 0v-29.163a176.288 176.288 0 0 1 40.348-24.627l-5.569 13.449a8 8 0 1 0 14.783 6.122l11.2-27.046a175.305 175.305 0 0 1 46.672-7.212l-10.3 10.3a8 8 0 0 0 11.314 11.314l20.7-20.7a174.62 174.62 0 0 1 45.9 11.19l-13.478 5.584a8 8 0 1 0 6.123 14.782l27.01-11.189a177.009 177.009 0 0 1 38.027 27.886h-14.46a8 8 0 0 0 0 16h29.167a176.279 176.279 0 0 1 24.627 40.35l-13.453-5.571a8 8 0 1 0 -6.122 14.782l27.049 11.2a175.346 175.346 0 0 1 7.212 46.672l-10.3-10.3a8 8 0 0 0 -11.314 11.314l20.7 20.7c-.2 1.889-.432 3.767-.688 5.639h-44.548a132.214 132.214 0 0 0 2.193-24c0-72.785-59.215-132-132-132s-132 59.215-132 132 59.215 132 132 132a132.233 132.233 0 0 0 125.8-92h45.607a174.556 174.556 0 0 1 -7.555 24.264zm-163.853 51.74a116 116 0 1 1 116-116 116.132 116.132 0 0 1 -116 116z"/></g></svg>